<mxfile host="app.diagrams.net" modified="2022-05-23T10:48:50.292Z" agent="5.0 (Windows NT 10.0; Win64; x64) AppleWebKit/537.36 (KHTML, like Gecko) Chrome/101.0.4951.67 Safari/537.36" etag="P3Z_MgsBn6ipAr5nGNZf" version="17.4.6" type="github">
  <diagram id="xu2mb1g7uYP6MgzBX0Nj" name="Page-1">
    <mxGraphModel dx="868" dy="435" grid="1" gridSize="10" guides="1" tooltips="1" connect="1" arrows="1" fold="1" page="1" pageScale="1" pageWidth="850" pageHeight="1100" math="0" shadow="0">
      <root>
        <mxCell id="0" />
        <mxCell id="1" parent="0" />
        <mxCell id="U-rz6DUYJOyuGDaAJLVC-1" value="activity diagram user mendaftar" style="shape=umlFrame;whiteSpace=wrap;html=1;width=160;height=30;" parent="1" vertex="1">
          <mxGeometry x="130" y="40" width="670" height="400" as="geometry" />
        </mxCell>
        <mxCell id="U-rz6DUYJOyuGDaAJLVC-14" value="User" style="swimlane;" parent="1" vertex="1">
          <mxGeometry x="240" y="80" width="210" height="330" as="geometry" />
        </mxCell>
        <mxCell id="U-rz6DUYJOyuGDaAJLVC-29" value="" style="rhombus;whiteSpace=wrap;html=1;fontSize=9;strokeColor=#000000;" parent="U-rz6DUYJOyuGDaAJLVC-14" vertex="1">
          <mxGeometry x="80" y="270" width="60" height="30" as="geometry" />
        </mxCell>
        <mxCell id="U-rz6DUYJOyuGDaAJLVC-32" value="&lt;font style=&quot;font-size: 7px&quot;&gt;data terisi dengan benar&lt;/font&gt;" style="text;html=1;strokeColor=none;fillColor=none;align=center;verticalAlign=middle;whiteSpace=wrap;rounded=0;fontSize=9;" parent="U-rz6DUYJOyuGDaAJLVC-14" vertex="1">
          <mxGeometry x="110" y="250" width="80" height="30" as="geometry" />
        </mxCell>
        <mxCell id="U-rz6DUYJOyuGDaAJLVC-15" value="System" style="swimlane;startSize=23;" parent="1" vertex="1">
          <mxGeometry x="450" y="80" width="237.5" height="330" as="geometry" />
        </mxCell>
        <mxCell id="ygFOcXAb84O6QIB9o2_i-5" value="" style="ellipse;html=1;shape=endState;fillColor=#000000;strokeColor=#000000;fontSize=7;" vertex="1" parent="U-rz6DUYJOyuGDaAJLVC-15">
          <mxGeometry x="195" y="267.5" width="25" height="25" as="geometry" />
        </mxCell>
        <mxCell id="ygFOcXAb84O6QIB9o2_i-7" value="&lt;font style=&quot;font-size: 9px&quot;&gt;Finish&lt;/font&gt;" style="text;html=1;strokeColor=none;fillColor=none;align=center;verticalAlign=middle;whiteSpace=wrap;rounded=0;" vertex="1" parent="U-rz6DUYJOyuGDaAJLVC-15">
          <mxGeometry x="177.5" y="290" width="60" height="30" as="geometry" />
        </mxCell>
        <mxCell id="U-rz6DUYJOyuGDaAJLVC-19" value="" style="ellipse;html=1;shape=startState;fillColor=#000000;strokeColor=#000000;" parent="1" vertex="1">
          <mxGeometry x="270" y="130" width="30" height="30" as="geometry" />
        </mxCell>
        <mxCell id="U-rz6DUYJOyuGDaAJLVC-21" value="&lt;font style=&quot;font-size: 9px&quot;&gt;start&lt;/font&gt;" style="text;html=1;strokeColor=none;fillColor=none;align=center;verticalAlign=middle;whiteSpace=wrap;rounded=0;" parent="1" vertex="1">
          <mxGeometry x="255" y="150" width="60" height="30" as="geometry" />
        </mxCell>
        <mxCell id="U-rz6DUYJOyuGDaAJLVC-22" value="" style="endArrow=open;endFill=1;endSize=12;html=1;rounded=0;fontSize=9;" parent="1" source="U-rz6DUYJOyuGDaAJLVC-19" edge="1">
          <mxGeometry width="160" relative="1" as="geometry">
            <mxPoint x="300" y="200" as="sourcePoint" />
            <mxPoint x="345" y="210" as="targetPoint" />
            <Array as="points">
              <mxPoint x="345" y="145" />
            </Array>
          </mxGeometry>
        </mxCell>
        <mxCell id="U-rz6DUYJOyuGDaAJLVC-25" value="" style="endArrow=open;endFill=1;endSize=12;html=1;rounded=0;fontSize=9;exitX=1;exitY=0.5;exitDx=0;exitDy=0;entryX=0;entryY=0.5;entryDx=0;entryDy=0;" parent="1" target="ygFOcXAb84O6QIB9o2_i-2" edge="1">
          <mxGeometry width="160" relative="1" as="geometry">
            <mxPoint x="405" y="227.5" as="sourcePoint" />
            <mxPoint x="490" y="161" as="targetPoint" />
            <Array as="points">
              <mxPoint x="440" y="228" />
              <mxPoint x="440" y="160" />
            </Array>
          </mxGeometry>
        </mxCell>
        <mxCell id="U-rz6DUYJOyuGDaAJLVC-27" value="" style="endArrow=open;endFill=1;endSize=12;html=1;rounded=0;fontSize=9;exitX=0.5;exitY=1;exitDx=0;exitDy=0;entryX=1;entryY=0.5;entryDx=0;entryDy=0;" parent="1" edge="1">
          <mxGeometry width="160" relative="1" as="geometry">
            <mxPoint x="565" y="180" as="sourcePoint" />
            <mxPoint x="405" y="287.5" as="targetPoint" />
            <Array as="points">
              <mxPoint x="565" y="288" />
            </Array>
          </mxGeometry>
        </mxCell>
        <mxCell id="U-rz6DUYJOyuGDaAJLVC-33" value="" style="endArrow=classic;html=1;rounded=0;fontSize=7;exitX=1;exitY=0.5;exitDx=0;exitDy=0;entryX=-0.001;entryY=0.645;entryDx=0;entryDy=0;entryPerimeter=0;" parent="1" source="U-rz6DUYJOyuGDaAJLVC-29" edge="1">
          <mxGeometry width="50" height="50" relative="1" as="geometry">
            <mxPoint x="390" y="360" as="sourcePoint" />
            <mxPoint x="509.87" y="362.57499999999993" as="targetPoint" />
          </mxGeometry>
        </mxCell>
        <mxCell id="U-rz6DUYJOyuGDaAJLVC-34" value="&lt;font style=&quot;font-size: 7px&quot;&gt;Ya&lt;/font&gt;" style="text;html=1;strokeColor=none;fillColor=none;align=center;verticalAlign=middle;whiteSpace=wrap;rounded=0;fontSize=9;" parent="1" vertex="1">
          <mxGeometry x="460" y="340" width="53.33" height="20" as="geometry" />
        </mxCell>
        <mxCell id="U-rz6DUYJOyuGDaAJLVC-35" value="&lt;font style=&quot;font-size: 7px&quot;&gt;Tidak&lt;/font&gt;" style="text;html=1;strokeColor=none;fillColor=none;align=center;verticalAlign=middle;whiteSpace=wrap;rounded=0;fontSize=9;" parent="1" vertex="1">
          <mxGeometry x="300" y="310" width="53.33" height="20" as="geometry" />
        </mxCell>
        <mxCell id="ygFOcXAb84O6QIB9o2_i-1" value="Klik link pendaftaran" style="rounded=1;whiteSpace=wrap;html=1;fontSize=7;strokeColor=#000000;" vertex="1" parent="1">
          <mxGeometry x="310" y="210" width="100" height="40" as="geometry" />
        </mxCell>
        <mxCell id="ygFOcXAb84O6QIB9o2_i-2" value="Menampilkan halaman pendaftaran" style="rounded=1;whiteSpace=wrap;html=1;fontSize=7;strokeColor=#000000;" vertex="1" parent="1">
          <mxGeometry x="513.33" y="140" width="100" height="40" as="geometry" />
        </mxCell>
        <mxCell id="ygFOcXAb84O6QIB9o2_i-3" value="Input Form Pendaftaran" style="rounded=1;whiteSpace=wrap;html=1;fontSize=7;strokeColor=#000000;" vertex="1" parent="1">
          <mxGeometry x="300.00000000000006" y="270" width="100" height="40" as="geometry" />
        </mxCell>
        <mxCell id="U-rz6DUYJOyuGDaAJLVC-30" value="" style="endArrow=classic;html=1;rounded=0;fontSize=9;exitX=0.5;exitY=0;exitDx=0;exitDy=0;" parent="1" source="U-rz6DUYJOyuGDaAJLVC-29" target="ygFOcXAb84O6QIB9o2_i-3" edge="1">
          <mxGeometry width="50" height="50" relative="1" as="geometry">
            <mxPoint x="390" y="360" as="sourcePoint" />
            <mxPoint x="345" y="305" as="targetPoint" />
          </mxGeometry>
        </mxCell>
        <mxCell id="ygFOcXAb84O6QIB9o2_i-4" value="Notifikasi Pendaftaran Berhasil" style="rounded=1;whiteSpace=wrap;html=1;fontSize=7;strokeColor=#000000;" vertex="1" parent="1">
          <mxGeometry x="513.33" y="340" width="100" height="40" as="geometry" />
        </mxCell>
        <mxCell id="ygFOcXAb84O6QIB9o2_i-6" value="" style="endArrow=open;endFill=1;endSize=12;html=1;rounded=0;fontSize=9;" edge="1" parent="1" source="ygFOcXAb84O6QIB9o2_i-4" target="ygFOcXAb84O6QIB9o2_i-5">
          <mxGeometry width="160" relative="1" as="geometry">
            <mxPoint x="610" y="232" as="sourcePoint" />
            <mxPoint x="450" y="339.5" as="targetPoint" />
            <Array as="points" />
          </mxGeometry>
        </mxCell>
      </root>
    </mxGraphModel>
  </diagram>
</mxfile>
